<svg width="48" height="48" viewBox="0 0 48 48" fill="none" xmlns="http://www.w3.org/2000/svg">
<path d="M30 19.2L31.896 15.072L36 13.2L31.896 11.328L30 7.20001L28.176 11.328L24 13.2L28.176 15.072L30 19.2Z" fill="white"/>
<path d="M9.6 24L10.56 20.16L14.4 19.2L10.56 18.24L9.6 14.4L8.64 18.24L4.8 19.2L8.64 20.16L9.6 24Z" fill="white"/>
<path d="M39.6 14.4C37.032 14.4 35.184 17.088 36.36 19.536L29.136 26.76C27.888 26.16 26.76 26.424 26.04 26.76L23.616 24.336C23.856 23.88 24 23.352 24 22.8C24 20.808 22.392 19.2 20.4 19.2C18.408 19.2 16.8 20.808 16.8 22.8C16.8 23.352 16.944 23.88 17.16 24.336L9.936 31.56C9.48 31.344 8.952 31.2 8.4 31.2C6.408 31.2 4.8 32.808 4.8 34.8C4.8 36.792 6.408 38.4 8.4 38.4C10.392 38.4 12 36.792 12 34.8C12 34.248 11.856 33.72 11.64 33.264L18.864 26.04C20.112 26.64 21.24 26.376 21.96 26.04L24.384 28.464C24.144 28.92 24 29.448 24 30C24 31.992 25.608 33.6 27.6 33.6C29.592 33.6 31.2 31.992 31.2 30C31.2 29.448 31.056 28.92 30.84 28.464L38.064 21.24C40.536 22.44 43.2 20.544 43.2 18C43.2 16.008 41.592 14.4 39.6 14.4Z" fill="white"/>
</svg>
