<svg width="48" height="48" viewBox="0 0 48 48" fill="none" xmlns="http://www.w3.org/2000/svg">
<path opacity="0.3" d="M26 34C23.8 34 22 32.2 22 30V18C22 15.8 23.8 14 26 14H38V10H10V38H38V34H26Z" fill="white"/>
<path d="M42 14.56V10C42 7.8 40.2 6 38 6H10C7.78 6 6 7.8 6 10V38C6 40.2 7.78 42 10 42H38C40.2 42 42 40.2 42 38V33.44C43.18 32.74 44 31.48 44 30V18C44 16.52 43.18 15.24 42 14.56ZM40 18V30H26V18H40ZM10 38V10H38V14H26C23.8 14 22 15.8 22 18V30C22 32.2 23.8 34 26 34H38V38H10Z" fill="white"/>
<path d="M32 27C33.6569 27 35 25.6569 35 24C35 22.3431 33.6569 21 32 21C30.3431 21 29 22.3431 29 24C29 25.6569 30.3431 27 32 27Z" fill="white"/>
</svg>
