<svg width="48" height="48" viewBox="0 0 48 48" fill="none" xmlns="http://www.w3.org/2000/svg">
<path opacity="0.3" d="M33.6 12H14.4V9.59998H33.6V12ZM19.8 30C19.8 29.328 19.272 28.8 18.6 28.8H17.4C16.728 28.8 16.2 29.328 16.2 30C16.2 30.672 16.728 31.2 17.4 31.2H18.6C19.272 31.2 19.8 30.672 19.8 30ZM19.8 25.2C19.8 24.528 19.272 24 18.6 24H17.4C16.728 24 16.2 24.528 16.2 25.2C16.2 25.872 16.728 26.4 17.4 26.4H18.6C19.272 26.4 19.8 25.872 19.8 25.2ZM19.8 20.4C19.8 19.728 19.272 19.2 18.6 19.2H17.4C16.728 19.2 16.2 19.728 16.2 20.4C16.2 21.072 16.728 21.6 17.4 21.6H18.6C19.272 21.6 19.8 21.072 19.8 20.4ZM25.8 30C25.8 29.328 25.272 28.8 24.6 28.8H23.4C22.728 28.8 22.2 29.328 22.2 30C22.2 30.672 22.728 31.2 23.4 31.2H24.6C25.272 31.2 25.8 30.672 25.8 30ZM25.8 25.2C25.8 24.528 25.272 24 24.6 24H23.4C22.728 24 22.2 24.528 22.2 25.2C22.2 25.872 22.728 26.4 23.4 26.4H24.6C25.272 26.4 25.8 25.872 25.8 25.2ZM25.8 20.4C25.8 19.728 25.272 19.2 24.6 19.2H23.4C22.728 19.2 22.2 19.728 22.2 20.4C22.2 21.072 22.728 21.6 23.4 21.6H24.6C25.272 21.6 25.8 21.072 25.8 20.4ZM31.8 30C31.8 29.328 31.272 28.8 30.6 28.8H29.4C28.728 28.8 28.2 29.328 28.2 30C28.2 30.672 28.728 31.2 29.4 31.2H30.6C31.272 31.2 31.8 30.672 31.8 30ZM31.8 25.2C31.8 24.528 31.272 24 30.6 24H29.4C28.728 24 28.2 24.528 28.2 25.2C28.2 25.872 28.728 26.4 29.4 26.4H30.6C31.272 26.4 31.8 25.872 31.8 25.2ZM31.8 20.4C31.8 19.728 31.272 19.2 30.6 19.2H29.4C28.728 19.2 28.2 19.728 28.2 20.4C28.2 21.072 28.728 21.6 29.4 21.6H30.6C31.272 21.6 31.8 21.072 31.8 20.4Z" fill="white"/>
<path d="M33.6 7.20001H14.4C13.08 7.20001 12 8.28001 12 9.60001V12C12 13.32 13.08 14.4 14.4 14.4H33.6C34.92 14.4 36 13.32 36 12V9.60001C36 8.28001 34.92 7.20001 33.6 7.20001ZM33.6 12H14.4V9.60001H33.6V12ZM38.4 40.8H9.6C8.28 40.8 7.2 39.72 7.2 38.4V36H40.8V38.4C40.8 39.72 39.72 40.8 38.4 40.8ZM34.224 18.264C33.84 17.376 32.976 16.8 32.016 16.8H15.984C15.024 16.8 14.16 17.376 13.776 18.264L7.2 33.6H40.8L34.224 18.264ZM18.6 31.2H17.4C16.728 31.2 16.2 30.672 16.2 30C16.2 29.328 16.728 28.8 17.4 28.8H18.6C19.272 28.8 19.8 29.328 19.8 30C19.8 30.672 19.272 31.2 18.6 31.2ZM18.6 26.4H17.4C16.728 26.4 16.2 25.872 16.2 25.2C16.2 24.528 16.728 24 17.4 24H18.6C19.272 24 19.8 24.528 19.8 25.2C19.8 25.872 19.272 26.4 18.6 26.4ZM18.6 21.6H17.4C16.728 21.6 16.2 21.072 16.2 20.4C16.2 19.728 16.728 19.2 17.4 19.2H18.6C19.272 19.2 19.8 19.728 19.8 20.4C19.8 21.072 19.272 21.6 18.6 21.6ZM24.6 31.2H23.4C22.728 31.2 22.2 30.672 22.2 30C22.2 29.328 22.728 28.8 23.4 28.8H24.6C25.272 28.8 25.8 29.328 25.8 30C25.8 30.672 25.272 31.2 24.6 31.2ZM24.6 26.4H23.4C22.728 26.4 22.2 25.872 22.2 25.2C22.2 24.528 22.728 24 23.4 24H24.6C25.272 24 25.8 24.528 25.8 25.2C25.8 25.872 25.272 26.4 24.6 26.4ZM24.6 21.6H23.4C22.728 21.6 22.2 21.072 22.2 20.4C22.2 19.728 22.728 19.2 23.4 19.2H24.6C25.272 19.2 25.8 19.728 25.8 20.4C25.8 21.072 25.272 21.6 24.6 21.6ZM30.6 31.2H29.4C28.728 31.2 28.2 30.672 28.2 30C28.2 29.328 28.728 28.8 29.4 28.8H30.6C31.272 28.8 31.8 29.328 31.8 30C31.8 30.672 31.272 31.2 30.6 31.2ZM30.6 26.4H29.4C28.728 26.4 28.2 25.872 28.2 25.2C28.2 24.528 28.728 24 29.4 24H30.6C31.272 24 31.8 24.528 31.8 25.2C31.8 25.872 31.272 26.4 30.6 26.4ZM30.6 21.6H29.4C28.728 21.6 28.2 21.072 28.2 20.4C28.2 19.728 28.728 19.2 29.4 19.2H30.6C31.272 19.2 31.8 19.728 31.8 20.4C31.8 21.072 31.272 21.6 30.6 21.6Z" fill="white"/>
</svg>
